<svg width="773" height="570" class="d-none d-lg-block ml-auto z-index-1 header-browser-app position-relative" viewBox="0 0 773 570" fill="none" xmlns="http://www.w3.org/2000/svg">
<g filter="url(#filter0_d)">
<g filter="url(#filter1_d)">
<rect x="533.779" y="60" width="204.883" height="176.75" rx="4" fill="white"/>
<text fill="#2A3546" xml:space="preserve" style="white-space: pre" font-family="sans-serif" font-size="12.5852" font-weight="bold" letter-spacing="0em"><tspan x="542.911" y="85.4329">Online Sichtbarkeit</tspan></text>
<g clip-path="url(#clip0)">
<g clip-path="url(#clip1)">
<text fill="#8698B6" xml:space="preserve" style="white-space: pre" font-family="sans-serif" font-size="11.4141" font-weight="bold" letter-spacing="0em"><tspan x="542.911" y="114.84">521</tspan></text>
<text fill="#8698B6" xml:space="preserve" style="white-space: pre" font-family="sans-serif" font-size="6.84847" font-weight="500" letter-spacing="0.0003em"><tspan x="576.583" y="113.552">ANFANGS</tspan></text>
<g clip-path="url(#clip2)">
<text fill="#2A3546" xml:space="preserve" style="white-space: pre" font-family="sans-serif" font-size="11.4141" font-weight="bold" letter-spacing="0em"><tspan x="542.911" y="130.82">1,230</tspan></text>
<text fill="#2A3546" xml:space="preserve" style="white-space: pre" font-family="sans-serif" font-size="6.84847" font-weight="500" letter-spacing="0.0003em"><tspan x="576.583" y="129.532">AKTUELL</tspan></text>
</g>
</g>
<g clip-path="url(#clip3)">
<g clip-path="url(#clip4)">
<text fill="#2A3546" xml:space="preserve" style="white-space: pre" font-family="sans-serif" font-size="18.2626" font-weight="bold" letter-spacing="0em"><tspan x="677.239" y="118.323">136</tspan></text>
<g clip-path="url(#clip5)">
<rect x="718.461" y="97.1108" width="11.4851" height="11.4851" rx="5.74256" transform="rotate(45 718.461 97.1108)" fill="#64D24C"/>
<text transform="translate(718.461 99.8179) rotate(45)" fill="white" xml:space="preserve" style="white-space: pre" font-family="rC-Icons" font-size="7.65675" letter-spacing="0em"><tspan x="0" y="6.50823">8</tspan></text>
<text fill="#2A3546" xml:space="preserve" style="white-space: pre" font-family="sans-serif" font-size="6.84847" letter-spacing="0.0003em"><tspan x="710.34" y="120.259">%</tspan></text>
</g>
</g>
<text fill="#2A3546" xml:space="preserve" style="white-space: pre" font-family="sans-serif" font-size="6.84847" font-weight="500" letter-spacing="0.0003em"><tspan x="678.221" y="130.532">VERBESSERUNG</tspan></text>
</g>
</g>
<g clip-path="url(#clip6)">
<g clip-path="url(#clip7)">
<rect width="186.418" height="71.5781" transform="translate(542.911 139.475)" fill="white"/>
<path d="M658.666 159.713L657.974 167.553C657.937 167.973 657.586 168.295 657.164 168.295C656.77 168.295 656.432 168.578 656.363 168.967L656.042 170.789C655.801 172.152 654.616 173.146 653.232 173.146H611.836C610.562 173.146 609.443 172.302 609.093 171.077L608.563 169.223C608.213 167.998 607.094 167.154 605.819 167.154H604.405C603.942 167.154 603.491 167.004 603.121 166.726C602.75 166.448 602.3 166.298 601.837 166.298H598.939C597.834 166.298 596.828 166.936 596.357 167.936L593.031 175.004C592.745 175.612 592.134 176 591.463 176C590.616 176 589.893 176.612 589.753 177.448L589.037 181.748C588.931 182.383 588.382 182.848 587.738 182.848C587.072 182.848 586.511 183.346 586.431 184.008L586.016 187.468C585.844 188.903 584.627 189.982 583.183 189.982H579.977C578.53 189.982 577.312 191.065 577.143 192.502L575.453 206.866C575.284 208.303 574.066 209.386 572.619 209.386H544.624C543.048 209.386 541.77 210.664 541.77 212.24V227.934C541.77 229.51 543.048 230.787 544.624 230.787H727.82C729.396 230.787 730.674 229.51 730.674 227.934V158.308C730.674 156.732 729.396 155.454 727.82 155.454H727.592C726.108 155.454 724.872 154.317 724.749 152.838L723.941 143.142C723.875 142.359 723.221 141.757 722.436 141.757H721.845C721.5 141.757 721.198 141.993 721.114 142.328C721.031 142.663 720.729 142.899 720.383 142.899H717.565C717.219 142.899 716.918 142.663 716.834 142.328C716.75 141.993 716.449 141.757 716.103 141.757H715.408C714.53 141.757 713.806 142.448 713.767 143.326L713.3 153.597C713.282 153.997 712.951 154.313 712.55 154.313C712.287 154.313 712.043 154.175 711.907 153.949L711.535 153.328C711.37 153.054 711.074 152.886 710.754 152.886C710.251 152.886 709.843 153.294 709.843 153.797V174.288C709.843 175.076 709.204 175.714 708.416 175.714C707.628 175.714 706.989 175.076 706.989 174.288V145.826C706.989 145.312 706.573 144.896 706.06 144.896C705.749 144.896 705.459 145.052 705.287 145.31L705.277 145.324C705.099 145.592 704.799 145.752 704.478 145.752H701.797C701.475 145.752 701.175 145.592 700.997 145.324C700.819 145.057 700.519 144.896 700.197 144.896H700.063C699.455 144.896 698.941 145.348 698.862 145.951L698.468 148.975C698.282 150.396 697.071 151.459 695.638 151.459H683.879C682.325 151.459 681.087 150.158 681.165 148.606L681.226 147.388C681.27 146.498 680.561 145.752 679.67 145.752H679.042C678.697 145.752 678.395 145.988 678.311 146.323C678.228 146.658 677.926 146.894 677.58 146.894H674.316C673.765 146.894 673.318 146.447 673.318 145.895C673.318 145.343 672.871 144.896 672.319 144.896H670.214C669.523 144.896 668.92 145.367 668.752 146.038L668.693 146.275C668.56 146.806 668.082 147.179 667.535 147.179C667.218 147.179 666.914 147.053 666.69 146.829L665.86 145.999C665.519 145.658 665.057 145.467 664.576 145.467H664.472C663.526 145.467 662.76 146.233 662.76 147.179V148.304C662.76 148.628 662.497 148.891 662.172 148.891C661.861 148.891 661.604 149.134 661.586 149.444L661.116 157.437C661.077 158.086 660.54 158.593 659.889 158.593C659.253 158.593 658.722 159.079 658.666 159.713Z" fill="#FFF5E0" stroke="#FFC247" stroke-width="1.57315" stroke-linejoin="round"/>
<path d="M663.223 159.813L662.538 167.577C662.502 167.983 662.161 168.295 661.753 168.295C661.351 168.295 661.014 168.597 660.97 168.996L660.474 173.461C660.313 174.907 659.091 176 657.637 176H597.294C595.885 176 594.688 177.027 594.473 178.419L592.731 189.745C592.634 190.374 592.093 190.838 591.457 190.838C590.79 190.838 590.234 191.346 590.173 192.01L589.66 197.66C589.526 199.129 588.294 200.255 586.818 200.255H544.624C543.048 200.255 541.77 201.532 541.77 203.108V227.934C541.77 229.51 543.048 230.788 544.624 230.788H727.82C729.396 230.788 730.674 229.51 730.674 227.934V166.583C730.674 165.007 729.396 163.73 727.82 163.73H711.929C710.432 163.73 709.19 164.887 709.083 166.38L708.465 175.028C708.438 175.415 708.116 175.714 707.728 175.714C707.32 175.714 706.989 175.384 706.989 174.976V157.167C706.989 155.591 705.712 154.313 704.136 154.313H668.826C667.537 154.313 666.417 155.199 666.12 156.453L665.857 157.564C665.714 158.167 665.175 158.593 664.555 158.593C663.862 158.593 663.284 159.123 663.223 159.813Z" fill="#E0FBF6" stroke="#36E2C3" stroke-width="1.57315" stroke-linejoin="round"/>
<path d="M657.097 202.386H544.624C543.048 202.386 541.77 203.664 541.77 205.24V227.934C541.77 229.51 543.048 230.788 544.624 230.788H727.82C729.396 230.788 730.674 229.51 730.674 227.934V173.146C730.674 171.571 729.396 170.293 727.82 170.293H715.71C714.256 170.293 713.034 171.386 712.873 172.831L712.27 178.263C712.109 179.708 710.888 180.801 709.434 180.801H665.943C664.767 180.801 663.813 181.755 663.813 182.932V184.461C663.813 184.793 663.544 185.062 663.212 185.062C662.894 185.062 662.631 185.31 662.613 185.628L662.112 194.401C662.083 194.898 661.672 195.286 661.174 195.286C660.685 195.286 660.278 195.661 660.238 196.148L659.941 199.767C659.819 201.247 658.582 202.386 657.097 202.386Z" fill="#E7EFFF" stroke="#0062FF" stroke-width="1.57315" stroke-linejoin="round"/>
</g>
<g clip-path="url(#clip8)">
<text fill="#506586" xml:space="preserve" style="white-space: pre" font-family="sans-serif" font-size="6.84847" font-weight="500" letter-spacing="0.0003em"><tspan x="542.911" y="222.525">ANFANGS</tspan></text>
<text fill="#506586" xml:space="preserve" style="white-space: pre" font-family="sans-serif" font-size="6.84847" font-weight="500" letter-spacing="0.0003em"><tspan x="698.615" y="222.459">AKTUELL</tspan></text>
</g>
</g>
</g>
<g filter="url(#filter2_d)">
<rect x="534" y="382" width="205" height="150" rx="4" fill="white"/>
</g>
<text fill="#2A3546" xml:space="preserve" style="white-space: pre" font-family="sans-serif" font-size="12.5852" font-weight="bold" letter-spacing="0em"><tspan x="543" y="407.433">Online-Praesenz</tspan></text>
<path d="M556.648 496.36H553.528V484.332L549.803 485.488V482.95L556.314 480.618H556.648V496.36Z" fill="#2A3546"/>
<path fill-rule="evenodd" clip-rule="evenodd" d="M566.992 482.334C563.627 482.334 560.898 479.606 560.898 476.24C560.898 472.875 563.627 470.146 566.992 470.146C570.358 470.146 573.086 472.875 573.086 476.24C573.086 479.606 570.358 482.334 566.992 482.334Z" fill="white"/>
<path fill-rule="evenodd" clip-rule="evenodd" d="M566.972 481.421C569.845 481.421 572.174 479.092 572.174 476.219C572.174 473.346 569.845 471.017 566.972 471.017C564.099 471.017 561.77 473.346 561.77 476.219C561.77 479.092 564.099 481.421 566.972 481.421Z" fill="#F9B440"/>
<path fill-rule="evenodd" clip-rule="evenodd" d="M569.8 476.845C569.8 476.857 569.799 476.866 569.796 476.871C569.635 477.546 569.297 478.094 568.784 478.513C568.27 478.932 567.668 479.142 566.978 479.142C566.61 479.142 566.254 479.073 565.91 478.934C565.566 478.796 565.26 478.598 564.99 478.341L564.503 478.829C564.455 478.876 564.398 478.9 564.333 478.9C564.267 478.9 564.21 478.876 564.163 478.829C564.115 478.781 564.091 478.724 564.091 478.658V476.966C564.091 476.9 564.115 476.844 564.163 476.796C564.21 476.748 564.267 476.724 564.333 476.724H566.025C566.091 476.724 566.147 476.748 566.195 476.796C566.243 476.843 566.267 476.9 566.267 476.966C566.267 477.031 566.243 477.088 566.195 477.136L565.678 477.653C565.857 477.82 566.059 477.948 566.286 478.039C566.513 478.129 566.748 478.175 566.993 478.175C567.33 478.175 567.645 478.093 567.937 477.929C568.229 477.765 568.463 477.54 568.64 477.253C568.667 477.21 568.734 477.063 568.84 476.811C568.86 476.753 568.898 476.724 568.953 476.724H569.679C569.711 476.724 569.74 476.736 569.764 476.76C569.788 476.784 569.8 476.812 569.8 476.845H569.8ZM569.894 473.822V475.515C569.894 475.58 569.87 475.637 569.822 475.685C569.774 475.733 569.717 475.757 569.652 475.757H567.959C567.894 475.757 567.837 475.733 567.789 475.685C567.741 475.637 567.717 475.58 567.717 475.515C567.718 475.449 567.742 475.392 567.789 475.345L568.311 474.823C567.938 474.478 567.498 474.306 566.992 474.306C566.654 474.306 566.34 474.388 566.048 474.551C565.755 474.715 565.521 474.941 565.345 475.228C565.317 475.271 565.251 475.418 565.145 475.67C565.125 475.728 565.087 475.757 565.031 475.757H564.279C564.247 475.757 564.218 475.745 564.194 475.721C564.17 475.697 564.158 475.668 564.158 475.636V475.609C564.322 474.934 564.662 474.387 565.178 473.967C565.695 473.548 566.299 473.338 566.992 473.338C567.36 473.338 567.717 473.408 568.065 473.548C568.412 473.688 568.721 473.885 568.99 474.139L569.481 473.652C569.529 473.604 569.586 473.58 569.651 473.58C569.717 473.58 569.774 473.604 569.822 473.652C569.869 473.7 569.893 473.756 569.893 473.822H569.894Z" fill="white"/>
<text fill="#8698B6" xml:space="preserve" style="white-space: pre" font-family="sans-serif" font-size="6.84847" font-weight="500" letter-spacing="0.0003em"><tspan x="550" y="508.841">Synchronisierung laeuft</tspan></text>
<path d="M658.844 496.214H648.069V494.076L653.154 488.656C653.853 487.893 654.367 487.227 654.698 486.658C655.037 486.09 655.206 485.55 655.206 485.039C655.206 484.341 655.029 483.794 654.677 483.398C654.324 482.995 653.82 482.793 653.165 482.793C652.46 482.793 651.902 483.038 651.492 483.527C651.089 484.009 650.887 484.646 650.887 485.438H647.756C647.756 484.481 647.983 483.606 648.436 482.815C648.897 482.023 649.545 481.404 650.38 480.958C651.214 480.504 652.161 480.277 653.219 480.277C654.839 480.277 656.095 480.666 656.987 481.443C657.887 482.221 658.337 483.318 658.337 484.736C658.337 485.514 658.135 486.306 657.732 487.112C657.329 487.918 656.638 488.857 655.659 489.93L652.085 493.698H658.844V496.214Z" fill="#2A3546"/>
<path fill-rule="evenodd" clip-rule="evenodd" d="M665.993 482.188C662.628 482.188 659.899 479.459 659.899 476.094C659.899 472.728 662.628 470 665.993 470C669.359 470 672.087 472.728 672.087 476.094C672.087 479.459 669.359 482.188 665.993 482.188Z" fill="white"/>
<path fill-rule="evenodd" clip-rule="evenodd" d="M665.972 481.275C668.845 481.275 671.174 478.946 671.174 476.073C671.174 473.2 668.845 470.871 665.972 470.871C663.099 470.871 660.77 473.2 660.77 476.073C660.77 478.946 663.099 481.275 665.972 481.275Z" fill="#3381FF"/>
<path fill-rule="evenodd" clip-rule="evenodd" d="M665.995 472.611C665.674 472.611 665.414 472.871 665.414 473.192V477.254C665.414 477.575 665.674 477.835 665.995 477.835C666.315 477.835 666.575 477.575 666.575 477.254V473.192C666.575 472.871 666.315 472.611 665.995 472.611ZM666.574 478.995C666.574 479.316 666.314 479.576 665.994 479.576C665.673 479.576 665.414 479.316 665.414 478.995C665.414 478.675 665.673 478.415 665.994 478.415C666.314 478.415 666.574 478.675 666.574 478.995Z" fill="white"/>
<text fill="#8698B6" xml:space="preserve" style="white-space: pre" font-family="sans-serif" font-size="6.84847" font-weight="500" letter-spacing="0.0003em"><tspan x="648" y="508.801">Handlungsbedarf</tspan></text>
<path d="M556.648 443.214H553.528V431.186L549.803 432.341V429.804L556.314 427.472H556.648V443.214Z" fill="#2A3546"/>
<path d="M562.23 435.483L563.137 427.493H571.948V430.095H565.696L565.308 433.475C566.049 433.079 566.837 432.881 567.672 432.881C569.169 432.881 570.343 433.345 571.192 434.274C572.041 435.202 572.466 436.501 572.466 438.171C572.466 439.186 572.25 440.097 571.818 440.903C571.393 441.702 570.782 442.325 569.983 442.771C569.184 443.21 568.241 443.429 567.154 443.429C566.204 443.429 565.322 443.239 564.509 442.857C563.695 442.469 563.051 441.925 562.576 441.227C562.108 440.529 561.86 439.733 561.831 438.841H564.919C564.984 439.496 565.21 440.007 565.599 440.374C565.995 440.734 566.51 440.914 567.143 440.914C567.848 440.914 568.392 440.662 568.773 440.158C569.155 439.647 569.346 438.927 569.346 437.999C569.346 437.106 569.126 436.422 568.687 435.947C568.248 435.472 567.625 435.235 566.819 435.235C566.078 435.235 565.477 435.429 565.016 435.818L564.714 436.098L562.23 435.483Z" fill="#2A3546"/>
<path d="M579.891 429.188C576.525 429.188 573.797 426.459 573.797 423.094C573.797 419.728 576.525 417 579.891 417C583.256 417 585.985 419.728 585.985 423.094C585.985 426.459 583.256 429.188 579.891 429.188Z" fill="white"/>
<path fill-rule="evenodd" clip-rule="evenodd" d="M579.891 428.296C582.764 428.296 585.093 425.967 585.093 423.094C585.093 420.221 582.764 417.892 579.891 417.892C577.018 417.892 574.689 420.221 574.689 423.094C574.689 425.967 577.018 428.296 579.891 428.296Z" fill="#64D24C"/>
<path fill-rule="evenodd" clip-rule="evenodd" d="M577.376 423.999C577.162 423.786 577.162 423.466 577.376 423.253C577.59 423.04 577.911 423.04 578.125 423.253L578.821 423.945L581.656 421.124C581.87 420.911 582.191 420.911 582.406 421.124C582.62 421.337 582.62 421.656 582.406 421.869L579.195 425.064C578.981 425.277 578.66 425.277 578.446 425.064L577.376 423.999Z" fill="white"/>
<text fill="#8698B6" xml:space="preserve" style="white-space: pre" font-family="sans-serif" font-size="6.84847" font-weight="500" letter-spacing="0.0003em"><tspan x="550" y="455.947">Synchronisiert</tspan></text>
<path d="M658.844 443.214H648.069V441.076L653.154 435.656C653.853 434.893 654.367 434.227 654.698 433.658C655.037 433.09 655.206 432.55 655.206 432.039C655.206 431.341 655.029 430.794 654.677 430.398C654.324 429.995 653.82 429.793 653.165 429.793C652.46 429.793 651.902 430.038 651.492 430.527C651.089 431.009 650.887 431.646 650.887 432.438H647.756C647.756 431.481 647.983 430.606 648.436 429.815C648.897 429.023 649.545 428.404 650.38 427.958C651.214 427.504 652.161 427.277 653.219 427.277C654.839 427.277 656.095 427.666 656.987 428.443C657.887 429.221 658.337 430.318 658.337 431.736C658.337 432.514 658.135 433.306 657.732 434.112C657.329 434.918 656.638 435.857 655.659 436.93L652.085 440.698H658.844V443.214Z" fill="#2A3546"/>
<path d="M665.993 429.188C662.627 429.188 659.899 426.459 659.899 423.094C659.899 419.728 662.627 417 665.993 417C669.358 417 672.087 419.728 672.087 423.094C672.087 426.459 669.358 429.188 665.993 429.188Z" fill="white"/>
<path fill-rule="evenodd" clip-rule="evenodd" d="M665.993 428.296C668.866 428.296 671.195 425.967 671.195 423.094C671.195 420.221 668.866 417.892 665.993 417.892C663.12 417.892 660.791 420.221 660.791 423.094C660.791 425.967 663.12 428.296 665.993 428.296Z" fill="#DA4B49"/>
<path fill-rule="evenodd" clip-rule="evenodd" d="M666.869 423.094L668.25 424.495C668.49 424.739 668.49 425.105 668.25 425.349C668.121 425.48 667.956 425.54 667.795 425.53C667.633 425.54 667.469 425.48 667.339 425.349L665.993 423.982L664.646 425.349C664.517 425.48 664.352 425.54 664.191 425.53C664.029 425.54 663.865 425.48 663.735 425.349C663.495 425.105 663.495 424.739 663.735 424.495L665.117 423.094L663.735 421.692C663.495 421.448 663.495 421.083 663.735 420.839C663.865 420.708 664.029 420.647 664.191 420.657C664.352 420.647 664.517 420.708 664.646 420.839L665.993 422.205L667.339 420.839C667.469 420.708 667.633 420.647 667.795 420.657C667.956 420.647 668.121 420.708 668.25 420.839C668.49 421.083 668.49 421.448 668.25 421.692L666.869 423.094Z" fill="white"/>
<text fill="#8698B6" xml:space="preserve" style="white-space: pre" font-family="sans-serif" font-size="6.84847" font-weight="500" letter-spacing="0.0003em"><tspan x="648" y="455.801">Kein Zugang</tspan></text>
<g filter="url(#filter3_d)">
<rect x="533.779" y="245" width="204.883" height="127.94" rx="4" fill="white"/>
<text fill="#2A3546" xml:space="preserve" style="white-space: pre" font-family="sans-serif" font-size="12.5852" font-weight="bold" letter-spacing="0em"><tspan x="542.911" y="270.433">Keyword Platzierungen </tspan></text>
<text fill="#2A3546" xml:space="preserve" style="white-space: pre" font-family="sans-serif" font-size="7.86573" font-weight="bold" letter-spacing="0em"><tspan x="543.218" y="293.931">Keyword</tspan></text>
<text fill="#2A3546" xml:space="preserve" style="white-space: pre" font-family="sans-serif" font-size="7.86573" font-weight="bold" letter-spacing="0em"><tspan x="655.698" y="293.931">14 Sept</tspan></text>
<text fill="#2A3546" xml:space="preserve" style="white-space: pre" font-family="sans-serif" font-size="7.86573" font-weight="bold" letter-spacing="0em"><tspan x="702.106" y="293.931">HEUTE</tspan></text>
<text fill="#506586" xml:space="preserve" style="white-space: pre" font-family="sans-serif" font-size="6.84847" font-weight="500" letter-spacing="0.0003em"><tspan x="542.911" y="315.693">steakhouse in america</tspan></text>
<text fill="#224361" xml:space="preserve" style="white-space: pre" font-family="sans-serif" font-size="9.43887" font-weight="500" letter-spacing="0px"><tspan x="664.83" y="316.578">6</tspan></text>
<text fill="#224361" xml:space="preserve" style="white-space: pre" font-family="sans-serif" font-size="9.43887" font-weight="500" letter-spacing="0px"><tspan x="704.944" y="316.578">3</tspan></text>
<path d="M713.741 315.868L713.734 315.879L717.694 311.919L715.269 311.984C715.15 311.987 715.039 311.942 714.957 311.86C714.875 311.779 714.831 311.668 714.834 311.549L714.845 311.172C714.848 311.053 714.897 310.94 714.984 310.854C715.07 310.767 715.183 310.718 715.302 310.714L719.454 310.599C719.573 310.596 719.683 310.639 719.765 310.721C719.848 310.804 719.891 310.914 719.888 311.033L719.773 315.185C719.769 315.304 719.72 315.417 719.633 315.503C719.547 315.59 719.434 315.639 719.315 315.643L718.938 315.653C718.82 315.657 718.71 315.613 718.628 315.531C718.546 315.449 718.507 315.343 718.51 315.225L718.582 312.779L714.613 316.748C714.435 316.926 714.139 316.931 713.971 316.762L713.712 316.503C713.543 316.334 713.563 316.046 713.741 315.868Z" fill="#22C646"/>
<text fill="#506586" xml:space="preserve" style="white-space: pre" font-family="sans-serif" font-size="6.84847" font-weight="500" letter-spacing="0.0003em"><tspan x="542.911" y="335.357">burgers in nyc</tspan></text>
<text fill="#224361" xml:space="preserve" style="white-space: pre" font-family="sans-serif" font-size="9.43887" font-weight="500" letter-spacing="0px"><tspan x="664.83" y="336.243">8</tspan></text>
<text fill="#224361" xml:space="preserve" style="white-space: pre" font-family="sans-serif" font-size="9.43887" font-weight="500" letter-spacing="0px"><tspan x="704.944" y="336.243">2</tspan></text>
<path d="M713.741 335.532L713.734 335.543L717.694 331.584L715.269 331.648C715.15 331.652 715.039 331.607 714.957 331.525C714.875 331.443 714.831 331.332 714.834 331.213L714.845 330.836C714.848 330.718 714.897 330.605 714.984 330.518C715.07 330.432 715.183 330.382 715.302 330.379L719.454 330.263C719.573 330.26 719.683 330.304 719.765 330.386C719.848 330.468 719.891 330.579 719.888 330.697L719.773 334.85C719.769 334.968 719.72 335.081 719.633 335.168C719.547 335.254 719.434 335.304 719.315 335.307L718.938 335.318C718.82 335.321 718.71 335.278 718.628 335.196C718.546 335.114 718.507 335.008 718.51 334.889L718.582 332.444L714.613 336.413C714.435 336.591 714.139 336.595 713.971 336.427L713.712 336.167C713.543 335.999 713.563 335.711 713.741 335.532Z" fill="#22C646"/>
<text fill="#506586" xml:space="preserve" style="white-space: pre" font-family="sans-serif" font-size="6.84847" font-weight="500" letter-spacing="0.0003em"><tspan x="542.911" y="355.021">black angus burgers</tspan></text>
<text fill="#224361" xml:space="preserve" style="white-space: pre" font-family="sans-serif" font-size="9.43887" font-weight="500" letter-spacing="0px"><tspan x="664.83" y="355.907">6</tspan></text>
<text fill="#224361" xml:space="preserve" style="white-space: pre" font-family="sans-serif" font-size="9.43887" font-weight="500" letter-spacing="0px"><tspan x="704.944" y="355.907">1</tspan></text>
<path d="M713.741 355.196L713.734 355.207L717.694 351.248L715.269 351.312C715.15 351.316 715.039 351.271 714.957 351.189C714.875 351.107 714.831 350.996 714.834 350.877L714.845 350.5C714.848 350.382 714.897 350.269 714.984 350.182C715.07 350.096 715.183 350.046 715.302 350.043L719.454 349.927C719.573 349.924 719.683 349.968 719.765 350.05C719.848 350.132 719.891 350.243 719.888 350.362L719.773 354.514C719.769 354.632 719.72 354.745 719.633 354.832C719.547 354.918 719.434 354.968 719.315 354.971L718.938 354.982C718.82 354.985 718.71 354.942 718.628 354.86C718.546 354.778 718.507 354.672 718.51 354.553L718.582 352.108L714.613 356.077C714.435 356.255 714.139 356.259 713.971 356.091L713.712 355.832C713.543 355.663 713.563 355.375 713.741 355.196Z" fill="#22C646"/>
</g>
<circle cx="717.125" cy="40.3481" r="10.1347" fill="#E6E9F0"/>
<path fill-rule="evenodd" clip-rule="evenodd" d="M717.125 35.7417C715.725 35.7417 714.591 36.8761 714.591 38.2754C714.591 39.6747 715.725 40.809 717.125 40.809C718.524 40.809 719.658 39.6747 719.658 38.2754C719.658 36.8761 718.524 35.7417 717.125 35.7417ZM715.512 38.2754C715.512 37.3849 716.234 36.663 717.125 36.663C718.015 36.663 718.737 37.3849 718.737 38.2754C718.737 39.1658 718.015 39.8877 717.125 39.8877C716.234 39.8877 715.512 39.1658 715.512 38.2754Z" fill="white"/>
<path fill-rule="evenodd" clip-rule="evenodd" d="M715.743 41.2697C713.962 41.2697 712.518 42.7134 712.518 44.4944C712.518 44.7488 712.724 44.955 712.979 44.955H721.243C721.513 44.955 721.731 44.7366 721.731 44.467C721.731 42.7012 720.3 41.2697 718.534 41.2697H715.743ZM720.769 44.0337H713.485C713.699 42.9824 714.628 42.191 715.743 42.191H718.534C719.643 42.191 720.567 42.984 720.769 44.0337Z" fill="white"/>
<rect x="392" y="30" width="134" height="20" rx="10" fill="white"/>
<text fill="#3D4D66" xml:space="preserve" style="white-space: pre" font-family="sans-serif" font-size="10" font-weight="bold" letter-spacing="0em"><tspan x="413" y="44.418">Schnelleinstieg</tspan></text>
<g clip-path="url(#clip9)">
<path d="M401.271 42.6815L400.635 42.0598C400.54 41.9676 400.401 41.9333 400.274 41.9713C400.146 42.0089 400.05 42.1129 400.023 42.2411L399.705 43.795C399.682 43.9114 399.719 44.0315 399.804 44.1152C399.89 44.1994 400.013 44.2359 400.132 44.2122L401.721 43.9017C401.852 43.876 401.958 43.7815 401.997 43.6566C402.036 43.5316 402.001 43.3954 401.906 43.3031L401.271 42.6815V42.6815Z" fill="#3D4D66"/>
<path d="M405.359 37.2306C405.769 36.8294 406.434 36.8294 406.845 37.2306C407.256 37.6318 407.256 38.2829 406.845 38.6841C406.434 39.0853 405.769 39.0853 405.359 38.6841C404.948 38.2829 404.948 37.6318 405.359 37.2306Z" fill="#3D4D66"/>
<path d="M400.637 37.9872C400.789 37.9502 400.943 38.0075 401.024 38.1314C401.105 38.2553 401.096 38.42 401.002 38.546L399.187 40.98C399.099 41.0975 398.953 41.1597 398.811 41.1393L397.297 40.921C397.17 40.9028 397.066 40.8207 397.022 40.7043C396.978 40.5874 397.001 40.4533 397.082 40.3493C398.095 39.0449 399.149 38.3465 400.637 37.9872L400.637 37.9872Z" fill="#3D4D66"/>
<path d="M406.021 43.2517C406.058 43.1026 406 42.9524 405.873 42.873C405.747 42.7936 405.578 42.8022 405.45 42.894L402.96 44.6693C402.84 44.7551 402.776 44.8978 402.797 45.0362L403.02 46.517C403.039 46.6415 403.123 46.7434 403.242 46.7863C403.362 46.8292 403.499 46.8066 403.605 46.7278C404.939 45.7372 405.653 44.7068 406.021 43.2517L406.021 43.2517Z" fill="#3D4D66"/>
<path d="M401.935 41.151L402.838 42.0334C403.744 41.5094 406.183 40.0563 407.215 39.0469C408.169 38.1147 408.441 36.4531 408.518 35.5955C407.641 35.6727 405.939 35.9404 404.988 36.8693C403.955 37.8792 402.471 40.2655 401.935 41.151ZM402.381 43.0411L400.905 41.5972C400.737 41.4336 400.702 41.1799 400.82 40.9788C400.904 40.8367 402.873 37.485 404.245 36.1425C405.867 34.557 408.944 34.5366 409.074 34.5366C409.354 34.5366 409.6 34.778 409.6 35.0505C409.6 35.1781 409.58 38.1876 407.959 39.7736C406.586 41.1156 403.16 43.0422 403.014 43.1232C402.808 43.239 402.549 43.2047 402.381 43.0411L402.381 43.0411Z" fill="#3D4D66"/>
</g>
<circle cx="515" cy="40" r="9" fill="#E6E9F0"/>
<text fill="white" xml:space="preserve" style="white-space: pre" font-family="sans-serif" font-size="10" font-weight="bold" letter-spacing="0em"><tspan x="512" y="43.418">5</tspan></text>
<rect x="569" y="30" width="134" height="20" rx="10" fill="white"/>
<text fill="#3D4D66" xml:space="preserve" style="white-space: pre" font-family="sans-serif" font-size="10" font-weight="500" letter-spacing="0em"><tspan x="590" y="43.946">Tom&#x2019;s Steakhouse</tspan></text>
<text fill="#3D4D66" xml:space="preserve" style="white-space: pre" font-family="rC-Icons" font-size="11.4141" letter-spacing="0em"><tspan x="686.105" y="43.261">3</tspan></text>
<circle cx="579" cy="40" r="9" fill="#E6E9F0"/>
<path d="M579.059 42.5363C579.823 42.5363 580.441 41.9176 580.441 41.1543C580.441 40.3911 579.823 39.7723 579.059 39.7723C578.296 39.7723 577.677 40.3911 577.677 41.1543C577.677 41.9176 578.296 42.5363 579.059 42.5363Z" fill="white"/>
<path fill-rule="evenodd" clip-rule="evenodd" d="M574.453 36.6628C574.453 36.4084 574.659 36.2021 574.913 36.2021H583.205C583.46 36.2021 583.666 36.4084 583.666 36.6628V43.5728C583.666 43.8272 583.46 44.0335 583.205 44.0335H574.913C574.659 44.0335 574.453 43.8272 574.453 43.5728V36.6628ZM575.374 39.1965V43.1122H582.745V39.1965H575.374ZM582.745 38.2752H575.374V37.1235H582.745V38.2752Z" fill="white"/>
<path d="M41.6398 69.2495C41.1124 68.7957 40.3029 68.7957 39.7755 69.2495L35.409 72.8187C35.0411 73.1008 34.8203 73.5301 34.8203 73.9962V79.1476C34.8203 79.9694 35.4826 80.6194 36.2921 80.6194H39.2358V76.9399C39.2358 76.5351 39.567 76.204 39.9717 76.204H41.4436C41.8483 76.204 42.1795 76.5351 42.1795 76.9399V80.6194H45.1231C45.9326 80.6194 46.595 79.9694 46.595 79.1476V73.9962C46.595 73.5301 46.3742 73.1008 46.0062 72.8187L41.6398 69.2495Z" fill="white"/>
<path d="M45.1231 94.6194C45.1231 93.8099 44.4976 93.1476 43.5777 93.1476C43.4305 92.7183 43.0258 92.4117 42.5474 92.4117H41.4436C41.4436 92.0069 41.1124 91.6758 40.7076 91.6758H39.2358C38.8311 91.6758 38.4999 92.0069 38.4999 92.4117H37.396C36.9177 92.4117 36.5129 92.7183 36.3535 93.1476C35.4704 93.1476 34.8203 93.7854 34.8203 94.6194V101.979C34.8203 102.788 35.4704 103.45 36.2921 103.45H43.6513C44.4608 103.45 45.1231 102.788 45.1231 101.979V94.6194ZM43.6513 101.979H36.2921V94.6194H37.764V95.3554H42.1795V94.6194H43.6513V101.979ZM38.4999 96.0913C38.0951 96.0913 37.764 96.4224 37.764 96.8272C37.764 97.2319 38.0951 97.5631 38.4999 97.5631C38.9046 97.5631 39.2358 97.2319 39.2358 96.8272C39.2358 96.4224 38.9046 96.0913 38.4999 96.0913ZM39.9717 97.5631H42.1795V96.0913H39.9717V97.5631ZM38.4999 99.0349C38.0951 99.0349 37.764 99.3661 37.764 99.7709C37.764 100.176 38.0951 100.507 38.4999 100.507C38.9046 100.507 39.2358 100.176 39.2358 99.7709C39.2358 99.3661 38.9046 99.0349 38.4999 99.0349ZM39.9717 100.507H42.1795V99.0349H39.9717V100.507Z" fill="white"/>
<path d="M36.2921 114.506H34.8203V124.809C34.8203 125.619 35.4826 126.281 36.2921 126.281H46.595V124.809H36.2921V114.506ZM43.2833 114.506H41.0756V123.337H43.2833V114.506ZM44.3872 117.45V123.337H46.595V117.45H44.3872ZM39.9717 119.658H37.764V123.337H39.9717V119.658Z" fill="white"/>
<path d="M45.1231 138.8H44.3872V138.432C44.3872 136.972 42.1795 136.972 42.1795 138.432V138.8H39.2358V138.432C39.2358 136.972 37.0281 136.972 37.0281 138.432V138.8H36.2921C35.4826 138.8 34.8203 139.462 34.8203 140.271V147.643C34.8203 148.452 35.4826 149.115 36.2921 149.115H45.1231C45.9326 149.115 46.595 148.452 46.595 147.643V140.271C46.595 139.462 45.9326 138.8 45.1231 138.8ZM36.2921 147.643V141.007H45.1231V147.643H36.2921ZM39.9717 143.951H41.4436V142.479H39.9717V143.951ZM42.1795 142.479V143.951H43.6513V142.479H42.1795ZM37.764 146.159H39.2358V144.687H37.764V146.159ZM39.9717 146.159H41.4436V144.687H39.9717V146.159ZM42.1795 146.159H43.6513V144.687H42.1795V146.159Z" fill="white"/>
<path d="M46.595 161.63C46.595 160.71 45.7855 159.999 44.7674 160.207L40.7076 161.225L36.6478 160.207C35.6544 160.011 34.8203 160.674 34.8203 161.63V168.904C34.8203 169.578 35.2741 170.167 35.9365 170.339L40.7076 171.528L45.4788 170.339C46.1289 170.167 46.595 169.578 46.595 168.904V161.63ZM36.2921 161.63L39.9717 162.55V169.823L36.2921 168.904V161.63ZM45.1231 168.904L41.4436 169.823V162.55L45.1231 161.63V168.904Z" fill="white"/>
<path d="M46.595 189.207V187.735L44.976 187.331C44.8778 186.95 44.7307 186.595 44.5344 186.264L45.393 184.829L44.3504 183.786L42.9154 184.657C42.5842 184.461 42.2285 184.313 41.8606 184.215L41.4436 182.584H39.9717L39.567 184.215C39.199 184.313 38.8433 184.461 38.5122 184.657L37.0649 183.786L36.0346 184.829L36.8931 186.264C36.6969 186.595 36.5497 186.95 36.4516 187.331L34.8203 187.735V189.207L36.4516 189.612C36.5497 189.992 36.6969 190.348 36.8931 190.679L36.0346 192.114L37.0649 193.157L38.5122 192.298C38.8433 192.482 39.199 192.629 39.567 192.74L39.9717 194.359H41.4436L41.8606 192.74C42.2285 192.629 42.5842 192.482 42.9154 192.298L44.3504 193.157L45.393 192.114L44.5344 190.679C44.7307 190.348 44.8778 189.992 44.976 189.612L46.595 189.207ZM37.764 188.471C37.7762 186.852 39.2358 185.528 40.7076 185.528C42.3389 185.528 43.6513 186.852 43.6513 188.471C43.6513 190.09 42.3389 191.415 40.7076 191.415C39.0886 191.415 37.7762 190.103 37.764 188.471ZM40.7076 186.999C39.8981 186.999 39.2358 187.662 39.2358 188.471C39.2358 189.281 39.8981 189.943 40.7076 189.943C41.5294 189.943 42.1795 189.281 42.1795 188.471C42.1795 187.662 41.5294 186.999 40.7076 186.999Z" fill="white"/>
<rect x="51" y="71.0791" width="88.4482" height="7.37068" rx="3.68534" fill="white"/>
<rect x="51" y="93.8779" width="72.7855" height="7.37068" rx="3.68534" fill="white"/>
<rect x="51" y="116.708" width="88.4482" height="7.37068" rx="3.68534" fill="white"/>
<rect x="51" y="139.541" width="58.0441" height="7.37068" rx="3.68534" fill="white"/>
<rect x="51" y="162.164" width="41.4601" height="7.37068" rx="3.68534" fill="white"/>
<rect x="51" y="184.786" width="58.0441" height="7.37068" rx="3.68534" fill="white"/>
</g>
<g filter="url(#filter4_d)">
<path fill-rule="evenodd" clip-rule="evenodd" d="M156 64C156 61.7909 157.791 60 160 60H522C524.209 60 526 61.7909 526 64V528C526 530.209 524.209 532 522 532H160C157.791 532 156 530.209 156 528V64Z" fill="white"/>
</g>
<text fill="#8698B6" xml:space="preserve" style="white-space: pre" font-family="sans-serif" font-size="7.43321" font-weight="500" letter-spacing="0.0003em"><tspan x="201.857" y="241.21">Klicks</tspan></text>
<text fill="#2A3546" xml:space="preserve" style="white-space: pre" font-family="sans-serif" font-size="15.3672" font-weight="bold" letter-spacing="0em"><tspan x="199.119" y="264.122">123</tspan></text>
<text fill="#8698B6" xml:space="preserve" style="white-space: pre" font-family="sans-serif" font-size="7.43321" font-weight="500" letter-spacing="0.0003em"><tspan x="262.45" y="242.165">Impressionen</tspan></text>
<text fill="#2A3546" xml:space="preserve" style="white-space: pre" font-family="sans-serif" font-size="15.3672" font-weight="bold" letter-spacing="0em"><tspan x="269.764" y="265.122">562</tspan></text>
<text fill="#8698B6" xml:space="preserve" style="white-space: pre" font-family="sans-serif" font-size="7.43321" font-weight="500" letter-spacing="0.0003em"><tspan x="338.024" y="242.165">O Kosten pro Klick</tspan></text>
<text fill="#2A3546" xml:space="preserve" style="white-space: pre" font-family="sans-serif" font-size="15.3672" font-weight="bold" letter-spacing="0em"><tspan x="347.479" y="264.877">&#x20ac;</tspan></text>
<text fill="#2A3546" xml:space="preserve" style="white-space: pre" font-family="sans-serif" font-size="15.3672" font-weight="bold" letter-spacing="0em"><tspan x="358.303" y="265.122">0.60</tspan></text>
<text fill="#8698B6" xml:space="preserve" style="white-space: pre" font-family="sans-serif" font-size="7.43321" font-weight="500" letter-spacing="0.0003em"><tspan x="436.862" y="242.165">Kosten pro Klick</tspan></text>
<text fill="#2A3546" xml:space="preserve" style="white-space: pre" font-family="sans-serif" font-size="15.3672" font-weight="bold" letter-spacing="0em"><tspan x="438.479" y="265.122">&#x20ac;</tspan></text>
<text fill="#2A3546" xml:space="preserve" style="white-space: pre" font-family="sans-serif" font-size="15.3672" font-weight="bold" letter-spacing="0em"><tspan x="449.303" y="265.122">6.04</tspan></text>
<rect x="185" y="285.6" width="310.51" height="0.853731" fill="#E0E4EB"/>
<text fill="#2A3546" xml:space="preserve" style="white-space: pre" font-family="sans-serif" font-size="10.2448" font-weight="bold" letter-spacing="0em"><tspan x="176" y="315.413">Anzeigen-Performance</tspan></text>
<text fill="#2A3546" xml:space="preserve" style="white-space: pre" font-family="sans-serif" font-size="7.43321" font-weight="500" letter-spacing="0.0003em"><tspan x="177" y="346.541">Klicks</tspan></text>
<text fill="#2A3546" xml:space="preserve" style="white-space: pre" font-family="sans-serif" font-size="12.3887" font-weight="bold" letter-spacing="0em"><tspan x="347.874" y="346.474">123</tspan></text>
<g clip-path="url(#clip10)">
<rect width="193.797" height="31.5881" transform="translate(177 353.973)" fill="white"/>
<path d="M211.411 375.5L176.788 384.112C175.408 384.456 174.439 385.695 174.439 387.118V404.661C174.439 406.371 175.826 407.758 177.536 407.758H394.166C395.876 407.758 397.263 406.371 397.263 404.661V357.924C397.263 356.213 395.876 354.827 394.166 354.827H371.921C371.583 354.827 371.247 354.882 370.927 354.99L340.315 365.363C340.047 365.454 339.767 365.508 339.484 365.522L263.911 369.5L211.411 375.5Z" fill="#F5F7F9" stroke="#8698B6" stroke-width="1.70746" stroke-linejoin="round"/>
</g>
<g clip-path="url(#clip11)">
<text fill="#506586" xml:space="preserve" style="white-space: pre" font-family="sans-serif" font-size="5.12239" font-weight="500" letter-spacing="0.0003em"><tspan x="177" y="397.39">01 Sept</tspan></text>
<text fill="#506586" xml:space="preserve" style="white-space: pre" font-family="sans-serif" font-size="5.12239" font-weight="500" letter-spacing="0.0003em"><tspan x="201.758" y="397.39">03 Sept</tspan></text>
<text fill="#506586" xml:space="preserve" style="white-space: pre" font-family="sans-serif" font-size="5.12239" font-weight="500" letter-spacing="0.0003em"><tspan x="226.517" y="397.39">05 Sept</tspan></text>
<text fill="#506586" xml:space="preserve" style="white-space: pre" font-family="sans-serif" font-size="5.12239" font-weight="500" letter-spacing="0.0003em"><tspan x="251.274" y="397.39">07 Sept</tspan></text>
<text fill="#506586" xml:space="preserve" style="white-space: pre" font-family="sans-serif" font-size="5.12239" font-weight="500" letter-spacing="0.0003em"><tspan x="276.033" y="397.39">09 Sept</tspan></text>
<text fill="#506586" xml:space="preserve" style="white-space: pre" font-family="sans-serif" font-size="5.12239" font-weight="500" letter-spacing="0.0003em"><tspan x="300.791" y="397.39">10 Sept</tspan></text>
<text fill="#506586" xml:space="preserve" style="white-space: pre" font-family="sans-serif" font-size="5.12239" font-weight="500" letter-spacing="0.0003em"><tspan x="325.549" y="397.39">12 Sept</tspan></text>
<text fill="#506586" xml:space="preserve" style="white-space: pre" font-family="sans-serif" font-size="5.12239" font-weight="500" letter-spacing="0.0003em"><tspan x="350.308" y="397.39">14 Sept</tspan></text>
</g>
<path d="M399.573 378.742C398.326 379.147 397.631 380.495 398.18 381.685C399.795 385.184 402.392 388.161 405.677 390.237C408.963 392.314 412.766 393.383 416.619 393.34C417.93 393.325 418.849 392.119 418.68 390.819C418.51 389.519 417.315 388.621 416.005 388.588C413.257 388.517 410.563 387.708 408.214 386.224C405.866 384.739 403.979 382.653 402.737 380.201C402.144 379.032 400.82 378.337 399.573 378.742Z" fill="#8698B6"/>
<path d="M419.877 390.621C420.135 391.907 421.393 392.753 422.639 392.345C426.513 391.077 429.929 388.651 432.408 385.368C435.366 381.45 436.785 376.584 436.397 371.69C436.008 366.796 433.838 362.214 430.298 358.813C427.332 355.962 423.576 354.106 419.55 353.465C418.255 353.259 417.147 354.294 417.095 355.604C417.043 356.914 418.071 358 419.357 358.253C422.22 358.817 424.88 360.192 427.008 362.236C429.71 364.833 431.366 368.33 431.663 372.066C431.96 375.801 430.877 379.516 428.619 382.507C426.84 384.862 424.431 386.639 421.693 387.648C420.462 388.102 419.619 389.336 419.877 390.621Z" fill="#E6E9F0"/>
<path d="M415.892 355.597C415.855 354.287 414.758 353.24 413.461 353.432C411.272 353.756 409.147 354.44 407.173 355.462C404.494 356.849 402.162 358.822 400.351 361.235C398.54 363.648 397.297 366.438 396.713 369.397C396.283 371.578 396.22 373.81 396.52 376.002C396.698 377.301 398.009 378.062 399.278 377.732C400.547 377.402 401.289 376.104 401.158 374.8C401.009 373.307 401.08 371.796 401.372 370.316C401.817 368.057 402.767 365.927 404.149 364.085C405.531 362.244 407.311 360.737 409.356 359.679C410.696 358.985 412.127 358.495 413.601 358.221C414.891 357.982 415.93 356.908 415.892 355.597Z" fill="#B6C1D3"/>
<text fill="#506586" xml:space="preserve" style="white-space: pre" font-family="sans-serif" font-size="5.12239" font-weight="500" letter-spacing="0.0003em"><tspan x="465.651" y="361.985"> Computer </tspan></text>
<text fill="#171D26" xml:space="preserve" style="white-space: pre" font-family="sans-serif" font-size="11.0985" font-weight="500" letter-spacing="0.0003em"><tspan x="449.266" y="361.985">50</tspan></text>
<text fill="#506586" xml:space="preserve" style="white-space: pre" font-family="sans-serif" font-size="5.12239" font-weight="500" letter-spacing="0.0003em"><tspan x="461.888" y="361.985">%</tspan></text>
<text fill="#506586" xml:space="preserve" style="white-space: pre" font-family="sans-serif" font-size="5.12239" font-weight="500" letter-spacing="0.0003em"><tspan x="465.651" y="377.353"> Tablets </tspan></text>
<text fill="#171D26" xml:space="preserve" style="white-space: pre" font-family="sans-serif" font-size="11.0985" font-weight="500" letter-spacing="0.0003em"><tspan x="449.266" y="377.353">25</tspan></text>
<text fill="#506586" xml:space="preserve" style="white-space: pre" font-family="sans-serif" font-size="5.12239" font-weight="500" letter-spacing="0.0003em"><tspan x="461.888" y="377.353">%</tspan></text>
<text fill="#506586" xml:space="preserve" style="white-space: pre" font-family="sans-serif" font-size="5.12239" font-weight="500" letter-spacing="0.0003em"><tspan x="464.798" y="392.72"> Mobil </tspan></text>
<text fill="#171D26" xml:space="preserve" style="white-space: pre" font-family="sans-serif" font-size="11.0985" font-weight="500" letter-spacing="0.0003em"><tspan x="448.412" y="392.72">25</tspan></text>
<text fill="#506586" xml:space="preserve" style="white-space: pre" font-family="sans-serif" font-size="5.12239" font-weight="500" letter-spacing="0.0003em"><tspan x="461.035" y="392.72">%</tspan></text>
<rect x="441.582" y="356.852" width="5.12239" height="2.56119" rx="1.2806" fill="#B6C1D3"/>
<rect x="441.582" y="371.852" width="5.12239" height="2.56119" rx="1.2806" fill="#B6C1D3"/>
<rect x="441.582" y="387.219" width="5.12239" height="2.56119" rx="1.2806" fill="#B6C1D3"/>
<text fill="#2A3546" xml:space="preserve" style="white-space: pre" font-family="sans-serif" font-size="7.43321" font-weight="500" letter-spacing="0.0003em"><tspan x="177" y="441.496">Impressionen</tspan></text>
<text fill="#2A3546" xml:space="preserve" style="white-space: pre" font-family="sans-serif" font-size="12.3887" font-weight="bold" letter-spacing="0em"><tspan x="348.727" y="442.092">548</tspan></text>
<g clip-path="url(#clip12)">
<rect width="193.797" height="31.5881" transform="translate(177 450.591)" fill="white"/>
<path d="M216.95 481.315H177.536C175.826 481.315 174.439 482.702 174.439 484.412V501.279C174.439 502.99 175.826 504.376 177.536 504.376H394.166C395.876 504.376 397.263 502.99 397.263 501.279V454.402C397.263 452.747 395.962 451.384 394.309 451.308L377.32 450.519C377.048 450.507 376.776 450.53 376.51 450.589L353.411 455.679L286.895 471.386C286.574 471.462 286.243 471.486 285.915 471.457L265.637 469.697C265.301 469.668 264.963 469.694 264.635 469.774L217.684 481.227C217.444 481.285 217.197 481.315 216.95 481.315Z" fill="#F5F7F9" stroke="#8698B6" stroke-width="1.70746" stroke-linejoin="round"/>
</g>
<g clip-path="url(#clip13)">
<text fill="#506586" xml:space="preserve" style="white-space: pre" font-family="sans-serif" font-size="5.12239" font-weight="500" letter-spacing="0.0003em"><tspan x="177" y="492.008">01 Sept</tspan></text>
<text fill="#506586" xml:space="preserve" style="white-space: pre" font-family="sans-serif" font-size="5.12239" font-weight="500" letter-spacing="0.0003em"><tspan x="201.758" y="492.008">03 Sept</tspan></text>
<text fill="#506586" xml:space="preserve" style="white-space: pre" font-family="sans-serif" font-size="5.12239" font-weight="500" letter-spacing="0.0003em"><tspan x="226.517" y="492.008">05 Sept</tspan></text>
<text fill="#506586" xml:space="preserve" style="white-space: pre" font-family="sans-serif" font-size="5.12239" font-weight="500" letter-spacing="0.0003em"><tspan x="251.274" y="492.008">07 Sept</tspan></text>
<text fill="#506586" xml:space="preserve" style="white-space: pre" font-family="sans-serif" font-size="5.12239" font-weight="500" letter-spacing="0.0003em"><tspan x="276.033" y="492.008">09 Sept</tspan></text>
<text fill="#506586" xml:space="preserve" style="white-space: pre" font-family="sans-serif" font-size="5.12239" font-weight="500" letter-spacing="0.0003em"><tspan x="300.791" y="492.008">10 Sept</tspan></text>
<text fill="#506586" xml:space="preserve" style="white-space: pre" font-family="sans-serif" font-size="5.12239" font-weight="500" letter-spacing="0.0003em"><tspan x="325.549" y="492.008">12 Sept</tspan></text>
<text fill="#506586" xml:space="preserve" style="white-space: pre" font-family="sans-serif" font-size="5.12239" font-weight="500" letter-spacing="0.0003em"><tspan x="350.308" y="492.008">14 Sept</tspan></text>
</g>
<path d="M398.455 474.743C397.208 475.148 396.513 476.495 397.062 477.686C398.677 481.185 401.274 484.161 404.559 486.238C407.845 488.315 411.648 489.383 415.501 489.341C416.812 489.326 417.731 488.12 417.562 486.82C417.392 485.519 416.197 484.622 414.886 484.588C412.139 484.518 409.444 483.708 407.096 482.224C404.748 480.74 402.861 478.654 401.618 476.202C401.026 475.032 399.702 474.338 398.455 474.743Z" fill="#8698B6"/>
<path d="M418.759 486.622C419.017 487.907 420.275 488.754 421.521 488.346C425.395 487.078 428.811 484.652 431.29 481.368C434.248 477.451 435.667 472.584 435.278 467.69C434.89 462.796 432.72 458.215 429.18 454.813C426.214 451.963 422.458 450.106 418.432 449.466C417.137 449.26 416.029 450.294 415.977 451.604C415.925 452.915 416.953 454 418.239 454.253C421.102 454.818 423.762 456.192 425.89 458.237C428.592 460.833 430.248 464.331 430.545 468.066C430.842 471.802 429.759 475.517 427.5 478.507C425.722 480.862 423.312 482.64 420.574 483.649C419.344 484.102 418.501 485.336 418.759 486.622Z" fill="#E6E9F0"/>
<path d="M414.774 451.598C414.737 450.287 413.64 449.24 412.343 449.432C410.154 449.756 408.029 450.44 406.055 451.463C403.376 452.849 401.044 454.823 399.233 457.235C397.422 459.648 396.179 462.438 395.595 465.398C395.165 467.579 395.101 469.811 395.402 472.003C395.58 473.302 396.891 474.063 398.16 473.733C399.429 473.402 400.17 472.105 400.04 470.8C399.891 469.307 399.962 467.797 400.254 466.316C400.699 464.057 401.648 461.928 403.031 460.086C404.413 458.244 406.193 456.738 408.238 455.679C409.578 454.986 411.008 454.496 412.483 454.222C413.773 453.983 414.811 452.908 414.774 451.598Z" fill="#B6C1D3"/>
<text fill="#506586" xml:space="preserve" style="white-space: pre" font-family="sans-serif" font-size="5.12239" font-weight="500" letter-spacing="0.0003em"><tspan x="465.651" y="456.653"> Computer </tspan></text>
<text fill="#171D26" xml:space="preserve" style="white-space: pre" font-family="sans-serif" font-size="11.0985" font-weight="500" letter-spacing="0.0003em"><tspan x="449.266" y="456.653">50</tspan></text>
<text fill="#506586" xml:space="preserve" style="white-space: pre" font-family="sans-serif" font-size="5.12239" font-weight="500" letter-spacing="0.0003em"><tspan x="461.888" y="456.653">%</tspan></text>
<text fill="#506586" xml:space="preserve" style="white-space: pre" font-family="sans-serif" font-size="5.12239" font-weight="500" letter-spacing="0.0003em"><tspan x="465.651" y="472.021"> Tablets </tspan></text>
<text fill="#171D26" xml:space="preserve" style="white-space: pre" font-family="sans-serif" font-size="11.0985" font-weight="500" letter-spacing="0.0003em"><tspan x="449.266" y="472.021">25</tspan></text>
<text fill="#506586" xml:space="preserve" style="white-space: pre" font-family="sans-serif" font-size="5.12239" font-weight="500" letter-spacing="0.0003em"><tspan x="461.888" y="472.021">%</tspan></text>
<text fill="#506586" xml:space="preserve" style="white-space: pre" font-family="sans-serif" font-size="5.12239" font-weight="500" letter-spacing="0.0003em"><tspan x="464.798" y="487.388"> Mobil </tspan></text>
<text fill="#171D26" xml:space="preserve" style="white-space: pre" font-family="sans-serif" font-size="11.0985" font-weight="500" letter-spacing="0.0003em"><tspan x="448.412" y="487.388">25</tspan></text>
<text fill="#506586" xml:space="preserve" style="white-space: pre" font-family="sans-serif" font-size="5.12239" font-weight="500" letter-spacing="0.0003em"><tspan x="461.035" y="487.388">%</tspan></text>
<rect x="441.582" y="450.299" width="5.12239" height="2.56119" rx="1.2806" fill="#B6C1D3"/>
<rect x="441.582" y="466.52" width="5.12239" height="2.56119" rx="1.2806" fill="#B6C1D3"/>
<rect x="441.582" y="481.887" width="5.12239" height="2.56119" rx="1.2806" fill="#B6C1D3"/>
<text fill="#2A3546" xml:space="preserve" style="white-space: pre; text-uppercase" font-family="sans-serif" font-size="16" font-weight="bold" letter-spacing="0em"><tspan x="176" y="93.3797">Google Ads</tspan></text>
<rect x="414.349" y="78.3493" width="92.0816" height="19.0957" rx="9.54787" fill="#B6C1D3"/>
<circle cx="423.897" cy="87.897" r="8.15071" fill="white" stroke="#B6C1D3" stroke-width="0.698582"/>
<text fill="white" xml:space="preserve" style="white-space: pre" font-family="sans-serif" font-size="10" font-weight="bold" letter-spacing="0em"><tspan x="443.2" y="91.3149">INAKTIV</tspan></text>
<rect x="176" y="114" width="78" height="15" rx="7.5" fill="white"/>
<path d="M186.5 116.5V119.219C185.042 119.729 184 121.115 184 122.75C184 124.823 185.677 126.5 187.75 126.5H194V116.5H186.5ZM192.75 119.312H189.25C188.781 119.115 188.281 119 187.75 119V117.75H192.75V119.312ZM185.25 122.75C185.25 121.375 186.375 120.25 187.75 120.25C189.125 120.25 190.25 121.375 190.25 122.75C190.25 124.125 189.125 125.25 187.75 125.25C186.375 125.25 185.25 124.125 185.25 122.75ZM192.75 122.438H191.479C191.427 121.74 191.177 121.104 190.792 120.562H192.75V122.438ZM188.375 120.875H187.125L186.5 122.125H187.125V123.375H186.5V124.313H189V123.375H188.375V120.875ZM192.75 125.25H190.542C190.938 124.813 191.219 124.281 191.375 123.688H192.75V125.25Z" fill="#3381FF"/>
<text fill="#3381FF" xml:space="preserve" style="white-space: pre" font-family="sans-serif" font-size="8" font-weight="bold" letter-spacing="0px"><tspan x="197" y="124.234">WERBEBUDGET</tspan></text>
<path d="M295 116.615V117.865H297.5V116.615H295ZM298.75 116.615V117.865H305V116.615H298.75ZM295 121.625H297.5V120.375H295V121.625ZM298.75 121.625H305V120.375H298.75V121.625ZM295 125.386H297.5V124.136H295V125.386ZM298.75 125.386H305V124.136H298.75V125.386Z" fill="#3381FF"/>
<text fill="#3381FF" xml:space="preserve" style="white-space: pre" font-family="sans-serif" font-size="8" font-weight="bold" letter-spacing="0px"><tspan x="308" y="123.734">ANZEIGENTEXTE</tspan></text>
<path d="M414 122.125V120.875L412.625 120.531C412.542 120.208 412.417 119.906 412.25 119.625L412.979 118.406L412.094 117.521L410.875 118.26C410.594 118.094 410.292 117.969 409.979 117.885L409.625 116.5H408.375L408.031 117.885C407.719 117.969 407.417 118.094 407.135 118.26L405.906 117.521L405.031 118.406L405.76 119.625C405.594 119.906 405.469 120.208 405.385 120.531L404 120.875V122.125L405.385 122.469C405.469 122.792 405.594 123.094 405.76 123.375L405.031 124.594L405.906 125.479L407.135 124.75C407.417 124.906 407.719 125.031 408.031 125.125L408.375 126.5H409.625L409.979 125.125C410.292 125.031 410.594 124.906 410.875 124.75L412.094 125.479L412.979 124.594L412.25 123.375C412.417 123.094 412.542 122.792 412.625 122.469L414 122.125ZM406.5 121.5C406.51 120.125 407.75 119 409 119C410.385 119 411.5 120.125 411.5 121.5C411.5 122.875 410.385 124 409 124C407.625 124 406.51 122.885 406.5 121.5ZM409 120.25C408.313 120.25 407.75 120.812 407.75 121.5C407.75 122.188 408.313 122.75 409 122.75C409.698 122.75 410.25 122.188 410.25 121.5C410.25 120.812 409.698 120.25 409 120.25Z" fill="#3381FF"/>
<text fill="#3381FF" xml:space="preserve" style="white-space: pre" font-family="sans-serif" font-size="8" font-weight="bold" letter-spacing="0px"><tspan x="417" y="124.234">ERWEITERT</tspan></text>
<rect x="161" y="142" width="361" height="75" fill="#F5F7F9"/>
<rect x="278" y="186" width="145" height="23" rx="2" fill="#66A1FF"/>
<g opacity="0.5">
<rect x="278" y="157" width="202" height="5" rx="2.5" fill="#B6C1D3"/>
<rect x="278" y="169" width="163" height="5" rx="2.5" fill="#B6C1D3"/>
</g>
<text fill="white" xml:space="preserve" style="white-space: pre" font-family="sans-serif" font-size="10" font-weight="bold" letter-spacing="0em"><tspan x="307.932" y="201.418">Kampagne aktivieren</tspan></text>
<rect x="206.312" y="158.982" width="42.9691" height="33.594" fill="white"/>
<path fill-rule="evenodd" clip-rule="evenodd" d="M204.677 160.417C204.677 159.083 205.761 158 207.093 158H247.525C248.858 158 249.941 159.085 249.941 160.417V192.795H251.034C251.398 192.795 251.693 193.09 251.693 193.454C251.693 193.818 251.398 194.113 251.034 194.113H201.814C201.45 194.113 201.155 193.818 201.155 193.454C201.155 193.09 201.45 192.795 201.814 192.795H204.677V160.417ZM248.623 160.416C248.623 159.812 248.13 159.318 247.525 159.318H207.093C206.489 159.318 205.995 159.812 205.995 160.416V192.717H211.928V180.628C211.928 180.145 212.323 179.753 212.803 179.753H219.842C220.325 179.753 220.717 180.144 220.717 180.628V192.717H222.914V185.022C222.914 184.539 223.309 184.148 223.789 184.148H230.829C231.312 184.148 231.703 184.538 231.703 185.022V192.717H233.901V179.309C233.901 178.826 234.295 178.435 234.776 178.435H241.815C242.298 178.435 242.69 178.825 242.69 179.309V192.717H248.623V160.416ZM241.371 192.717V179.753H235.219V192.717H241.371ZM230.385 192.717V185.466H224.233V192.717H230.385ZM219.399 192.717V181.071H213.246V192.717H219.399ZM199.154 194.113H194.498C194.134 194.113 193.839 193.818 193.839 193.454C193.839 193.09 194.134 192.795 194.498 192.795H199.154C199.518 192.795 199.813 193.09 199.813 193.454C199.813 193.818 199.518 194.113 199.154 194.113ZM262.341 194.113H253.552C253.187 194.113 252.892 193.818 252.892 193.454C252.892 193.09 253.187 192.795 253.552 192.795H262.341C262.705 192.795 263 193.09 263 193.454C263 193.818 262.705 194.113 262.341 194.113ZM201.481 199.304H234.001C234.365 199.304 234.66 199.009 234.66 198.645C234.66 198.281 234.365 197.986 234.001 197.986H201.481C201.117 197.986 200.822 198.281 200.822 198.645C200.822 199.009 201.117 199.304 201.481 199.304ZM238.395 199.304H248.503C248.867 199.304 249.162 199.009 249.162 198.645C249.162 198.281 248.867 197.986 248.503 197.986H238.395C238.031 197.986 237.736 198.281 237.736 198.645C237.736 199.009 238.031 199.304 238.395 199.304ZM230.165 177.556C230.165 177.041 230.029 176.558 229.791 176.141L237.313 168.813C237.619 168.925 237.95 168.986 238.295 168.986C239.873 168.986 241.152 167.707 241.152 166.13C241.152 164.552 239.873 163.273 238.295 163.273C236.718 163.273 235.439 164.552 235.439 166.13C235.439 166.876 235.725 167.555 236.193 168.064L228.891 175.177C228.438 174.875 227.894 174.699 227.309 174.699C227.032 174.699 226.764 174.739 226.511 174.812L223.561 170.309C223.847 169.864 224.013 169.335 224.013 168.767C224.013 167.189 222.734 165.91 221.156 165.91C219.579 165.91 218.3 167.189 218.3 168.767C218.3 169.415 218.516 170.012 218.88 170.492L217.533 172.147C217.067 171.817 216.498 171.623 215.883 171.623C214.305 171.623 213.026 172.902 213.026 174.479C213.026 176.057 214.305 177.336 215.883 177.336C217.461 177.336 218.739 176.057 218.739 174.479C218.739 174.001 218.622 173.55 218.414 173.154L219.897 171.331C220.277 171.518 220.704 171.623 221.156 171.623C221.68 171.623 222.171 171.482 222.593 171.236L225.363 175.465C224.803 175.986 224.452 176.73 224.452 177.556C224.452 179.133 225.731 180.412 227.309 180.412C228.886 180.412 230.165 179.133 230.165 177.556ZM239.833 166.13C239.833 166.979 239.145 167.668 238.295 167.668C237.446 167.668 236.757 166.979 236.757 166.13C236.757 165.28 237.446 164.592 238.295 164.592C239.145 164.592 239.833 165.28 239.833 166.13ZM228.847 177.556C228.847 178.405 228.158 179.094 227.309 179.094C226.459 179.094 225.771 178.405 225.771 177.556C225.771 176.706 226.459 176.018 227.309 176.018C228.158 176.018 228.847 176.706 228.847 177.556ZM222.695 168.767C222.695 169.616 222.006 170.305 221.156 170.305C220.307 170.305 219.618 169.616 219.618 168.767C219.618 167.917 220.307 167.228 221.156 167.228C222.006 167.228 222.695 167.917 222.695 168.767ZM217.421 174.479C217.421 175.329 216.732 176.018 215.883 176.018C215.033 176.018 214.345 175.329 214.345 174.479C214.345 173.63 215.033 172.941 215.883 172.941C216.732 172.941 217.421 173.63 217.421 174.479Z" fill="#C1CAD6"/>
<path fill-rule="evenodd" clip-rule="evenodd" d="M186 172.588C186 180.645 192.531 187.177 200.588 187.177C208.645 187.177 215.177 180.645 215.177 172.588C215.177 164.531 208.645 158 200.588 158C192.531 158 186 164.531 186 172.588Z" fill="white"/>
<path fill-rule="evenodd" clip-rule="evenodd" d="M200.5 185.701C193.209 185.701 187.298 179.791 187.298 172.5C187.298 165.209 193.209 159.298 200.5 159.298C207.791 159.298 213.701 165.209 213.701 172.5C213.701 179.791 207.791 185.701 200.5 185.701Z" fill="#B6C1D3"/>
<rect x="201.551" y="167.321" width="2.59701" height="10.3881" rx="1.29851" fill="white"/>
<rect x="196.357" y="167.321" width="2.59701" height="10.3881" rx="1.29851" fill="white"/>
<defs>
<filter id="filter0_d" x="0.820312" y="0" width="772.18" height="570" filterUnits="userSpaceOnUse" color-interpolation-filters="sRGB">
<feFlood flood-opacity="0" result="BackgroundImageFix"/>
<feColorMatrix in="SourceAlpha" type="matrix" values="0 0 0 0 0 0 0 0 0 0 0 0 0 0 0 0 0 0 127 0"/>
<feOffset dy="4"/>
<feGaussianBlur stdDeviation="17"/>
<feColorMatrix type="matrix" values="0 0 0 0 0.00201389 0 0 0 0 0.186218 0 0 0 0 0.481319 0 0 0 0.15 0"/>
<feBlend mode="normal" in2="BackgroundImageFix" result="effect1_dropShadow"/>
<feBlend mode="normal" in="SourceGraphic" in2="effect1_dropShadow" result="shape"/>
</filter>
<filter id="filter1_d" x="529.779" y="56.8" width="212.883" height="184.75" filterUnits="userSpaceOnUse" color-interpolation-filters="sRGB">
<feFlood flood-opacity="0" result="BackgroundImageFix"/>
<feColorMatrix in="SourceAlpha" type="matrix" values="0 0 0 0 0 0 0 0 0 0 0 0 0 0 0 0 0 0 127 0"/>
<feOffset dy="0.8"/>
<feGaussianBlur stdDeviation="2"/>
<feColorMatrix type="matrix" values="0 0 0 0 0.12549 0 0 0 0 0.188235 0 0 0 0 0.235294 0 0 0 0.1 0"/>
<feBlend mode="normal" in2="BackgroundImageFix" result="effect1_dropShadow"/>
<feBlend mode="normal" in="SourceGraphic" in2="effect1_dropShadow" result="shape"/>
</filter>
<filter id="filter2_d" x="530" y="378.8" width="213" height="158" filterUnits="userSpaceOnUse" color-interpolation-filters="sRGB">
<feFlood flood-opacity="0" result="BackgroundImageFix"/>
<feColorMatrix in="SourceAlpha" type="matrix" values="0 0 0 0 0 0 0 0 0 0 0 0 0 0 0 0 0 0 127 0"/>
<feOffset dy="0.8"/>
<feGaussianBlur stdDeviation="2"/>
<feColorMatrix type="matrix" values="0 0 0 0 0.12549 0 0 0 0 0.188235 0 0 0 0 0.235294 0 0 0 0.1 0"/>
<feBlend mode="normal" in2="BackgroundImageFix" result="effect1_dropShadow"/>
<feBlend mode="normal" in="SourceGraphic" in2="effect1_dropShadow" result="shape"/>
</filter>
<filter id="filter3_d" x="529.779" y="241.8" width="212.883" height="135.94" filterUnits="userSpaceOnUse" color-interpolation-filters="sRGB">
<feFlood flood-opacity="0" result="BackgroundImageFix"/>
<feColorMatrix in="SourceAlpha" type="matrix" values="0 0 0 0 0 0 0 0 0 0 0 0 0 0 0 0 0 0 127 0"/>
<feOffset dy="0.8"/>
<feGaussianBlur stdDeviation="2"/>
<feColorMatrix type="matrix" values="0 0 0 0 0.12549 0 0 0 0 0.188235 0 0 0 0 0.235294 0 0 0 0.1 0"/>
<feBlend mode="normal" in2="BackgroundImageFix" result="effect1_dropShadow"/>
<feBlend mode="normal" in="SourceGraphic" in2="effect1_dropShadow" result="shape"/>
</filter>
<filter id="filter4_d" x="152" y="56.8" width="378" height="480" filterUnits="userSpaceOnUse" color-interpolation-filters="sRGB">
<feFlood flood-opacity="0" result="BackgroundImageFix"/>
<feColorMatrix in="SourceAlpha" type="matrix" values="0 0 0 0 0 0 0 0 0 0 0 0 0 0 0 0 0 0 127 0"/>
<feOffset dy="0.8"/>
<feGaussianBlur stdDeviation="2"/>
<feColorMatrix type="matrix" values="0 0 0 0 0.12549 0 0 0 0 0.188235 0 0 0 0 0.235294 0 0 0 0.1 0"/>
<feBlend mode="normal" in2="BackgroundImageFix" result="effect1_dropShadow"/>
<feBlend mode="normal" in="SourceGraphic" in2="effect1_dropShadow" result="shape"/>
</filter>
<clipPath id="clip0">
<rect width="183.672" height="35.5151" fill="white" transform="translate(542.911 97.1108)"/>
</clipPath>
<clipPath id="clip1">
<rect width="109.672" height="27.3939" fill="white" transform="translate(542.911 105.232)"/>
</clipPath>
<clipPath id="clip2">
<rect width="109.672" height="11.4141" fill="white" transform="translate(542.911 121.212)"/>
</clipPath>
<clipPath id="clip3">
<rect width="74" height="35.5151" fill="white" transform="translate(652.583 97.1108)"/>
</clipPath>
<clipPath id="clip4">
<rect width="49.3434" height="25.3737" fill="white" transform="translate(677.239 97.1108)"/>
</clipPath>
<clipPath id="clip5">
<rect width="16.2424" height="25.3737" fill="white" transform="translate(710.34 97.1108)"/>
</clipPath>
<clipPath id="clip6">
<rect width="186.418" height="85.275" fill="white" transform="translate(542.911 139.475)"/>
</clipPath>
<clipPath id="clip7">
<rect width="186.418" height="71.5781" fill="white" transform="translate(542.911 139.475)"/>
</clipPath>
<clipPath id="clip8">
<rect width="186" height="9.1313" fill="white" transform="translate(542.911 215.618)"/>
</clipPath>
<clipPath id="clip9">
<rect width="12.8726" height="12.8726" fill="white" transform="translate(397 34)"/>
</clipPath>
<clipPath id="clip10">
<rect width="193.797" height="31.5881" fill="white" transform="translate(177 353.973)"/>
</clipPath>
<clipPath id="clip11">
<rect width="191.236" height="9.91094" fill="white" transform="translate(177 390.517)"/>
</clipPath>
<clipPath id="clip12">
<rect width="193.797" height="31.5881" fill="white" transform="translate(177 450.591)"/>
</clipPath>
<clipPath id="clip13">
<rect width="191.236" height="9.91094" fill="white" transform="translate(177 485.135)"/>
</clipPath>
</defs>
</svg>
